<?xml version="1.0" standalone="no"?>
<!DOCTYPE svg PUBLIC "-//W3C//DTD SVG 1.1//EN" "http://www.w3.org/Graphics/SVG/1.1/DTD/svg11.dtd" >
<svg xmlns="http://www.w3.org/2000/svg" xmlns:xlink="http://www.w3.org/1999/xlink" version="1.1">
<metadata>
Created by FontForge 20161116 at Tue Sep  5 14:16:24 2017
 By Jimmy Wärting
Copyright (c) 2013 by Jan-Christian. All rights reserved.
</metadata>
<defs>
<font id="Boysen-Bold" horiz-adv-x="585" >
  <font-face 
    font-family="Boysen"
    font-weight="700"
    font-stretch="normal"
    units-per-em="1000"
    panose-1="0 0 0 0 0 0 0 0 0 0"
    ascent="750"
    descent="-250"
    x-height="587"
    cap-height="587"
    bbox="-75 -280 1057 890"
    underline-thickness="50"
    underline-position="-100"
    unicode-range="U+0020-2212"
  />
<missing-glyph horiz-adv-x="249" 
 />
    <glyph glyph-name=".notdef" horiz-adv-x="249" 
 />
    <glyph glyph-name=".null" horiz-adv-x="0" 
 />
    <glyph glyph-name="CR" horiz-adv-x="249" 
 />
    <glyph glyph-name="space" unicode=" " horiz-adv-x="249" 
 />
    <glyph glyph-name="l" unicode="l" horiz-adv-x="421" 
d="M393 105v-105h-339v587h112v-482h227z" />
    <glyph glyph-name="o" unicode="o" horiz-adv-x="687" 
d="M341 -8c-175 0 -309 132 -309 301c0 170 137 301 309 301s309 -130 309 -301c0 -167 -135 -301 -309 -301zM341 485c-107 0 -194 -88 -194 -192c0 -107 88 -192 194 -192c109 0 194 90 194 192c0 100 -82 192 -194 192z" />
    <glyph glyph-name="r" unicode="r" horiz-adv-x="500" 
d="M500 0h-131l-4 10c-35 74 -97 198 -114 216c-13 14 -30 20 -54 20h-42v-246h-112v587h166c137 0 209 -72 209 -171c0 -60 -25 -99 -72 -133c30 -35 130 -235 142 -259zM155 351h49c56 0 99 14 99 66c0 44 -31 64 -95 64h-53v-130z" />
    <glyph glyph-name="c" unicode="c" horiz-adv-x="549" 
d="M356 -5c-181 0 -318 126 -318 300c0 177 146 301 315 301c42 0 98 -10 147 -28v-122c-73 33 -110 40 -153 41c-109 0 -194 -82 -194 -192c0 -116 82 -191 196 -191c50 0 90 12 159 45v-121c-53 -22 -101 -33 -152 -33z" />
    <glyph glyph-name="n" unicode="n" horiz-adv-x="617" 
d="M557 0h-86l-312 387v-387h-112v587h87l311 -387v387h112v-587z" />
    <glyph glyph-name="d" unicode="d" horiz-adv-x="602" 
d="M256 -1h-184v588h178c202 0 314 -123 314 -295s-119 -293 -308 -293zM184 104h61c124 0 204 73 204 188c0 114 -78 190 -202 190h-63v-378z" />
    <glyph glyph-name="e" unicode="e" horiz-adv-x="467" 
d="M401 0h-333v587h328v-105h-216v-134h209v-105h-209v-138h221v-105z" />
    <glyph glyph-name="m" unicode="m" horiz-adv-x="675" 
d="M608 0h-112v392l-160 -198l-161 199v-393h-112v587h93l180 -219l179 219h93v-587z" />
    <glyph glyph-name="u" unicode="u" horiz-adv-x="591" 
d="M291 -8c-125 0 -239 109 -239 263v332h112v-329c0 -110 67 -157 128 -157c68 0 125 62 125 161v325h112v-328c0 -167 -118 -267 -238 -267z" />
    <glyph glyph-name="a" unicode="a" 
d="M572 0h-119l-66 159h-188l-59 -159h-121l242 587h69zM295 396l-51 -132h98z" />
    <glyph glyph-name="b" unicode="b" horiz-adv-x="502" 
d="M253 1h-187v587h148c134 0 203 -72 203 -170c0 -40 -12 -74 -36 -102c52 -28 81 -77 81 -140c0 -109 -83 -175 -209 -175zM178 106h67c73 0 103 26 103 67c0 46 -30 72 -122 72h-48v-139zM178 347h25c84 0 99 31 99 67c0 47 -25 69 -101 69h-23v-136z" />
    <glyph glyph-name="h" unicode="h" horiz-adv-x="610" 
d="M543 0h-112v245h-244v-245h-112v588h112v-238h244v238h112v-588z" />
    <glyph glyph-name="ae" unicode="&#xe6;" horiz-adv-x="800" 
d="M734 0h-332v202h-118l-129 -202h-128l367 587h335v-105h-215v-139h208v-105h-208v-133h220v-105zM350 307h52v89z" />
    <glyph glyph-name="oslash" unicode="&#xf8;" horiz-adv-x="687" 
d="M112 -45l-62 91l50 54c-45 55 -68 120 -68 193c0 172 137 301 309 301c62 0 117 -15 164 -43l69 76l62 -90l-51 -56c43 -53 65 -116 65 -188c0 -167 -137 -301 -309 -301c-61 0 -114 14 -160 41zM258 118c25 -11 53 -17 83 -17c106 0 194 88 194 192c0 38 -10 71 -29 101
zM341 485c-107 0 -194 -86 -194 -192c0 -41 10 -75 30 -106l252 278c-26 13 -55 20 -88 20z" />
    <glyph glyph-name="agrave" unicode="&#xe0;" 
d="M572 0h-119l-66 159h-188l-59 -159h-121l242 587h69zM295 396l-51 -132h98zM232 800l114 -150h-119l-113 150h118z" />
    <glyph glyph-name="aacute" unicode="&#xe1;" 
d="M572 0h-119l-66 159h-188l-59 -159h-121l242 587h69zM295 396l-51 -132h98zM232 650l114 150h118l-113 -150h-119z" />
    <glyph glyph-name="acircumflex" unicode="&#xe2;" 
d="M572 0h-119l-66 159h-188l-59 -159h-121l242 587h69zM295 396l-51 -132h98zM369 761l118 -128h-138l-54 64l-54 -64h-139l118 128h149z" />
    <glyph glyph-name="atilde" unicode="&#xe3;" 
d="M572 0h-119l-66 159h-188l-59 -159h-121l242 587h69zM295 396l-51 -132h98zM469 759c1 -91 -28 -135 -91 -135c-59 0 -107 55 -144 55c-6 0 -17 0 -20 -50h-77c0 88 32 133 95 133c49 0 121 -53 145 -53c9 0 14 14 16 50h76z" />
    <glyph glyph-name="adieresis" unicode="&#xe4;" 
d="M572 0h-119l-66 159h-188l-59 -159h-121l242 587h69zM295 396l-51 -132h98zM213 756c34 0 61 -27 61 -61c0 -33 -27 -61 -61 -61s-61 28 -61 61c0 34 27 61 61 61zM383 756c34 0 61 -27 61 -61c0 -33 -27 -61 -61 -61s-61 28 -61 61c0 34 27 61 61 61z" />
    <glyph glyph-name="aring" unicode="&#xe5;" 
d="M295 652c-6 0 -10 -5 -10 -10s4 -9 10 -9s10 3 10 9s-4 10 -10 10zM572 0h-119l-66 159h-188l-60 -159h-120l228 552c-34 19 -53 51 -53 90c0 57 47 101 101 101c59 0 102 -51 102 -101c0 -27 -10 -52 -29 -72h-1c-7 -7 -14 -13 -22 -17zM244 264h98l-47 132z" />
    <glyph glyph-name="oe" unicode="&#x153;" horiz-adv-x="661" 
 />
    <glyph glyph-name="AE" unicode="&#xc6;" horiz-adv-x="800" 
d="M734 0h-332v202h-118l-129 -202h-128l367 587h335v-105h-215v-139h208v-105h-208v-133h220v-105zM350 307h52v89z" />
    <glyph glyph-name="i" unicode="i" horiz-adv-x="258" 
d="M179 0h-111v587h111v-587z" />
    <glyph glyph-name="k" unicode="k" horiz-adv-x="538" 
d="M237 296l308 -296h-155l-219 210v-210h-113v587h113v-203l195 203h150z" />
    <glyph glyph-name="q" unicode="q" horiz-adv-x="694" 
d="M656 -85h-17c-221 0 -601 86 -601 378c0 171 135 301 309 301c173 0 309 -133 309 -301c0 -111 -57 -209 -162 -261c56 -9 98 -11 122 -11c14 0 22 1 40 2v-108zM153 293c0 -105 86 -192 194 -192c109 0 194 90 194 192s-84 192 -194 192c-106 0 -194 -86 -194 -192z" />
    <glyph glyph-name="f" unicode="f" horiz-adv-x="471" 
d="M191 0h-112v587h339v-105h-227v-130h203v-105h-203v-247z" />
    <glyph glyph-name="g" unicode="g" horiz-adv-x="554" 
d="M351 -9c-181 0 -317 126 -317 301c0 170 138 301 315 301c43 0 97 -10 146 -28v-122c-25 13 -81 41 -153 41c-110 0 -193 -83 -193 -192c0 -116 82 -192 196 -192c16 0 32 2 47 4v112h-109v105h221v-296c-52 -24 -103 -34 -153 -34z" />
    <glyph glyph-name="y" unicode="y" horiz-adv-x="535" 
d="M323 0h-112v203l-220 384h137l140 -251l139 251h138l-222 -384v-203z" />
    <glyph glyph-name="t" unicode="t" horiz-adv-x="512" 
d="M311 0h-112v481h-153v106h417v-106h-152v-481z" />
    <glyph glyph-name="s" unicode="s" horiz-adv-x="444" 
d="M217 -7c-93 0 -162 57 -171 65v124c28 -21 108 -80 164 -80c42 0 75 28 75 67c0 38 -19 56 -100 84c-109 37 -146 94 -146 171c0 94 80 171 183 171c76 0 142 -40 151 -46v-134c-29 27 -78 71 -147 71c-42 0 -72 -30 -72 -60c0 -33 16 -48 87 -74
c111 -41 158 -83 158 -185c0 -93 -81 -174 -182 -174z" />
    <glyph glyph-name="p" unicode="p" horiz-adv-x="445" 
d="M165 0h-112v587h183c133 0 200 -74 200 -173c0 -112 -84 -173 -205 -173h-66v-241zM164 346h64c56 0 92 17 92 68c0 38 -24 68 -88 68h-68v-136z" />
    <glyph glyph-name="j" unicode="j" horiz-adv-x="343" 
d="M124 -6c-33 0 -58 6 -73 9v116c39 -12 56 -17 72 -16c56 0 61 23 61 85v291h-102v108h214v-407c0 -136 -71 -186 -172 -186z" />
    <glyph glyph-name="period" unicode="." horiz-adv-x="192" 
d="M98 125c35 0 63 -28 63 -63c0 -34 -28 -62 -63 -62c-34 0 -62 28 -62 62c0 35 28 63 62 63z" />
    <glyph glyph-name="ntilde" unicode="&#xf1;" horiz-adv-x="617" 
d="M557 0h-86l-312 387v-387h-112v587h87l311 -387v387h112v-587zM457 780c1 -91 -28 -135 -91 -135c-59 0 -107 55 -144 55c-6 0 -17 0 -20 -50h-77c0 88 32 133 95 133c49 0 121 -53 145 -53c9 0 14 14 16 50h76z" />
    <glyph glyph-name="v" unicode="v" horiz-adv-x="526" 
d="M292 0h-59l-233 587h118l145 -376l143 376h120z" />
    <glyph glyph-name="w" unicode="w" horiz-adv-x="861" 
d="M640 0h-59l-149 368l-149 -368h-60l-221 587h118l133 -366l148 366h61l148 -366l133 366h117z" />
    <glyph glyph-name="z" unicode="z" horiz-adv-x="567" 
d="M505 0h-459l-18 54l300 427h-278v106h441l15 -59l-299 -423h298v-105z" />
    <glyph glyph-name="A" unicode="A" 
d="M572 0h-119l-66 159h-188l-59 -159h-121l242 587h69zM295 396l-51 -132h98z" />
    <glyph glyph-name="B" unicode="B" horiz-adv-x="502" 
d="M253 1h-187v587h148c134 0 203 -72 203 -170c0 -40 -12 -74 -36 -102c52 -28 81 -77 81 -140c0 -109 -83 -175 -209 -175zM178 106h67c73 0 103 26 103 67c0 46 -30 72 -122 72h-48v-139zM178 347h25c84 0 99 31 99 67c0 47 -25 69 -101 69h-23v-136z" />
    <glyph glyph-name="C" unicode="C" horiz-adv-x="549" 
d="M356 -5c-181 0 -318 126 -318 300c0 177 146 301 315 301c42 0 98 -10 147 -28v-122c-73 33 -110 40 -153 41c-109 0 -194 -82 -194 -192c0 -116 82 -191 196 -191c50 0 90 12 159 45v-121c-53 -22 -101 -33 -152 -33z" />
    <glyph glyph-name="D" unicode="D" horiz-adv-x="602" 
d="M256 -1h-184v588h178c202 0 314 -123 314 -295s-119 -293 -308 -293zM184 104h61c124 0 204 73 204 188c0 114 -78 190 -202 190h-63v-378z" />
    <glyph glyph-name="E" unicode="E" horiz-adv-x="467" 
d="M401 0h-333v587h328v-105h-216v-134h209v-105h-209v-138h221v-105z" />
    <glyph glyph-name="F" unicode="F" horiz-adv-x="471" 
d="M191 0h-112v587h339v-105h-227v-130h203v-105h-203v-247z" />
    <glyph glyph-name="G" unicode="G" horiz-adv-x="554" 
d="M351 -9c-181 0 -317 126 -317 301c0 170 138 301 315 301c43 0 97 -10 146 -28v-122c-25 13 -81 41 -153 41c-110 0 -193 -83 -193 -192c0 -116 82 -192 196 -192c16 0 32 2 47 4v112h-109v105h221v-296c-52 -24 -103 -34 -153 -34z" />
    <glyph glyph-name="H" unicode="H" horiz-adv-x="610" 
d="M543 0h-112v245h-244v-245h-112v588h112v-238h244v238h112v-588z" />
    <glyph glyph-name="I" unicode="I" horiz-adv-x="258" 
d="M179 0h-111v587h111v-587z" />
    <glyph glyph-name="J" unicode="J" horiz-adv-x="343" 
d="M124 -6c-33 0 -58 6 -73 9v116c39 -12 56 -17 72 -16c56 0 61 23 61 85v291h-102v108h214v-407c0 -136 -71 -186 -172 -186z" />
    <glyph glyph-name="K" unicode="K" horiz-adv-x="538" 
d="M237 296l308 -296h-155l-219 210v-210h-113v587h113v-203l195 203h150z" />
    <glyph glyph-name="L" unicode="L" horiz-adv-x="421" 
d="M393 105v-105h-339v587h112v-482h227z" />
    <glyph glyph-name="M" unicode="M" horiz-adv-x="675" 
d="M608 0h-112v392l-160 -198l-161 199v-393h-112v587h93l180 -219l179 219h93v-587z" />
    <glyph glyph-name="N" unicode="N" horiz-adv-x="617" 
d="M557 0h-86l-312 387v-387h-112v587h87l311 -387v387h112v-587z" />
    <glyph glyph-name="O" unicode="O" horiz-adv-x="687" 
d="M341 -8c-175 0 -309 132 -309 301c0 170 137 301 309 301s309 -130 309 -301c0 -167 -135 -301 -309 -301zM341 485c-107 0 -194 -88 -194 -192c0 -107 88 -192 194 -192c109 0 194 90 194 192c0 100 -82 192 -194 192z" />
    <glyph glyph-name="P" unicode="P" horiz-adv-x="445" 
d="M165 0h-112v587h183c133 0 200 -74 200 -173c0 -112 -84 -173 -205 -173h-66v-241zM164 346h64c56 0 92 17 92 68c0 38 -24 68 -88 68h-68v-136z" />
    <glyph glyph-name="Q" unicode="Q" horiz-adv-x="694" 
d="M656 -85h-17c-221 0 -601 86 -601 378c0 171 135 301 309 301c173 0 309 -133 309 -301c0 -111 -57 -209 -162 -261c56 -9 98 -11 122 -11c14 0 22 1 40 2v-108zM153 293c0 -105 86 -192 194 -192c109 0 194 90 194 192s-84 192 -194 192c-106 0 -194 -86 -194 -192z" />
    <glyph glyph-name="R" unicode="R" horiz-adv-x="500" 
d="M500 0h-131l-4 10c-35 74 -97 198 -114 216c-13 14 -30 20 -54 20h-42v-246h-112v587h166c137 0 209 -72 209 -171c0 -60 -25 -99 -72 -133c30 -35 130 -235 142 -259zM155 351h49c56 0 99 14 99 66c0 44 -31 64 -95 64h-53v-130z" />
    <glyph glyph-name="S" unicode="S" horiz-adv-x="444" 
d="M217 -7c-93 0 -162 57 -171 65v124c28 -21 108 -80 164 -80c42 0 75 28 75 67c0 38 -19 56 -100 84c-109 37 -146 94 -146 171c0 94 80 171 183 171c76 0 142 -40 151 -46v-134c-29 27 -78 71 -147 71c-42 0 -72 -30 -72 -60c0 -33 16 -48 87 -74
c111 -41 158 -83 158 -185c0 -93 -81 -174 -182 -174z" />
    <glyph glyph-name="T" unicode="T" horiz-adv-x="512" 
d="M311 0h-112v481h-153v106h417v-106h-152v-481z" />
    <glyph glyph-name="U" unicode="U" horiz-adv-x="591" 
d="M291 -8c-125 0 -239 109 -239 263v332h112v-329c0 -110 67 -157 128 -157c68 0 125 62 125 161v325h112v-328c0 -167 -118 -267 -238 -267z" />
    <glyph glyph-name="V" unicode="V" horiz-adv-x="526" 
d="M292 0h-59l-233 587h118l145 -376l143 376h120z" />
    <glyph glyph-name="W" unicode="W" horiz-adv-x="861" 
d="M640 0h-59l-149 368l-149 -368h-60l-221 587h118l133 -366l148 366h61l148 -366l133 366h117z" />
    <glyph glyph-name="X" unicode="X" horiz-adv-x="625" 
d="M391 301l218 -301h-145l-151 208l-151 -208h-144l215 301l-203 286h144l139 -192l137 192h144z" />
    <glyph glyph-name="Y" unicode="Y" horiz-adv-x="535" 
d="M323 0h-112v203l-220 384h137l140 -251l139 251h138l-222 -384v-203z" />
    <glyph glyph-name="Z" unicode="Z" horiz-adv-x="560" 
d="M505 0h-459l-18 54l300 427h-278v106h441l15 -59l-299 -423h298v-105z" />
    <glyph glyph-name="zero" unicode="0" horiz-adv-x="502" 
d="M244 -7c-130 0 -201 132 -201 303c0 173 79 298 203 298c131 0 200 -138 200 -298c0 -175 -77 -303 -202 -303zM244 486c-47 0 -90 -81 -90 -190c0 -107 36 -195 92 -195c48 0 89 81 89 195c0 136 -54 190 -91 190z" />
    <glyph glyph-name="x" unicode="x" horiz-adv-x="625" 
d="M391 301l218 -301h-145l-151 208l-151 -208h-144l215 301l-203 286h144l139 -192l137 192h144z" />
    <glyph glyph-name="Oslash" unicode="&#xd8;" horiz-adv-x="687" 
d="M112 -45l-62 91l50 54c-45 55 -68 120 -68 193c0 172 137 301 309 301c62 0 117 -15 164 -43l69 76l62 -90l-51 -56c43 -53 65 -116 65 -188c0 -167 -137 -301 -309 -301c-61 0 -114 14 -160 41zM258 118c25 -11 53 -17 83 -17c106 0 194 88 194 192c0 38 -10 71 -29 101
zM341 485c-107 0 -194 -86 -194 -192c0 -41 10 -75 30 -106l252 278c-26 13 -55 20 -88 20z" />
    <glyph glyph-name="Aring" unicode="&#xc5;" 
d="M295 652c-6 0 -10 -5 -10 -10s4 -9 10 -9s10 3 10 9s-4 10 -10 10zM572 0h-119l-66 159h-188l-60 -159h-120l228 552c-34 19 -53 51 -53 90c0 57 47 101 101 101c59 0 102 -51 102 -101c0 -27 -10 -52 -29 -72h-1c-7 -7 -14 -13 -22 -17zM244 264h98l-47 132z" />
    <glyph glyph-name="one" unicode="1" horiz-adv-x="347" 
d="M261 0h-111v409l-95 -96v157l120 117h86v-587z" />
    <glyph glyph-name="two" unicode="2" horiz-adv-x="490" 
d="M435 0h-374v61l5 5c38 38 63 68 88 95c45 49 135 152 135 247c0 44 -34 78 -81 78c-63 0 -118 -61 -119 -61l-29 -33v139l5 5c2 3 61 58 147 58c102 0 188 -80 188 -185c0 -73 -47 -161 -79 -206l-28 -40c-13 -19 -29 -36 -42 -56h184v-107z" />
    <glyph glyph-name="three" unicode="3" horiz-adv-x="449" 
d="M202 -7c-83 0 -143 34 -145 35l-9 5v118l27 -18c1 0 50 -32 124 -32c57 0 85 33 85 73c0 51 -40 79 -91 79h-57v108h55c43 0 87 26 87 63c0 34 -36 62 -82 62c-68 0 -113 -45 -114 -46l-29 -30v132l7 5c41 32 84 47 142 47c114 0 186 -75 186 -168
c0 -42 -17 -83 -55 -117c41 -33 61 -78 61 -128c0 -113 -81 -188 -192 -188z" />
    <glyph glyph-name="four" unicode="4" horiz-adv-x="506" 
d="M370 0h-110v153h-236v61l278 374h69v-332h89l-21 -103h-69v-153zM182 256h79v109z" />
    <glyph glyph-name="five" unicode="5" horiz-adv-x="474" 
d="M226 -8c-63 0 -118 20 -163 50v131c28 -23 90 -72 161 -72c56 0 91 40 91 93c0 57 -35 91 -107 91c-45 0 -93 -16 -117 -24v326h291v-107h-182v-90c5 0 12 1 20 1c131 0 205 -87 205 -196c0 -118 -85 -203 -199 -203z" />
    <glyph glyph-name="six" unicode="6" horiz-adv-x="474" 
d="M236 -5c-118 0 -196 86 -196 223c0 124 53 238 264 393l64 -87c-96 -65 -152 -118 -183 -179c16 4 36 7 52 7c99 0 180 -78 180 -176c0 -104 -78 -181 -181 -181zM153 225c-1 -5 -1 -10 -1 -11c0 -83 31 -110 83 -110c40 0 72 30 72 72c0 35 -32 67 -73 67
c-38 0 -69 -12 -81 -18z" />
    <glyph glyph-name="seven" unicode="7" horiz-adv-x="461" 
d="M180 -10l-105 28l191 462h-221v107h386z" />
    <glyph glyph-name="eight" unicode="8" horiz-adv-x="442" 
d="M219 -6c-100 0 -183 81 -183 182c0 51 21 99 56 131c-29 28 -45 72 -45 113c0 96 74 175 176 175c90 0 170 -81 170 -173c0 -48 -18 -83 -45 -115c36 -36 55 -81 55 -129c0 -103 -79 -184 -184 -184zM220 249c-41 0 -73 -29 -73 -74c0 -43 31 -73 74 -73s72 34 72 74
c0 41 -32 73 -73 73zM220 486c-37 0 -63 -23 -63 -68c0 -32 30 -61 63 -61c32 0 62 28 62 63c0 45 -29 66 -62 66z" />
    <glyph glyph-name="nine" unicode="9" horiz-adv-x="451" 
d="M145 -17l-65 86l15 11c83 57 130 104 169 169c-17 -4 -36 -7 -52 -7c-101 0 -181 78 -181 176c0 105 81 181 182 181c118 0 196 -93 196 -223c0 -127 -60 -247 -251 -383zM213 490c-41 0 -71 -32 -71 -72c0 -36 31 -68 72 -68c39 0 69 13 82 19c1 5 1 10 1 11
c0 80 -30 110 -84 110z" />
    <glyph glyph-name="exclam" unicode="!" horiz-adv-x="238" 
d="M150 599v-390h-93v390h93zM101 125c35 0 63 -28 63 -63c0 -34 -28 -62 -63 -62c-34 0 -62 28 -62 62c0 35 28 63 62 63z" />
    <glyph glyph-name="dollar" unicode="$" horiz-adv-x="467" 
d="M260 350c93 -34 158 -71 158 -185c0 -71 -49 -142 -124 -165v-117h-112v115c-65 14 -109 51 -117 58v124l27 -20c1 0 81 -60 137 -60c42 0 75 28 75 67c0 38 -17 56 -100 84c-105 35 -146 90 -146 171c0 72 48 140 124 163v101h112v-98c56 -9 88 -35 98 -40v-135l-28 26
c-1 1 -50 45 -119 45c-42 0 -72 -30 -72 -60c0 -33 16 -48 87 -74z" />
    <glyph glyph-name="percent" unicode="%" horiz-adv-x="769" 
d="M560 -15c-84 0 -157 71 -157 156c0 88 70 157 157 157s159 -72 159 -157c0 -82 -70 -156 -159 -156zM211 -7h-131l474 600h129zM562 194c-28 0 -55 -23 -55 -52c0 -30 25 -52 54 -52c32 0 53 25 53 50c0 28 -22 54 -52 54zM202 295c-88 0 -157 70 -157 157
c0 88 70 157 157 157c88 0 158 -71 158 -157s-72 -157 -158 -157zM204 505c-32 0 -55 -24 -55 -52c0 -30 24 -54 54 -54s53 27 53 52c0 29 -26 54 -52 54z" />
    <glyph glyph-name="ampersand" unicode="&#x26;" horiz-adv-x="537" 
d="M252 -7c-112 0 -193 76 -193 188c0 50 22 96 62 128c-38 34 -56 75 -56 117c0 102 86 168 186 168c64 0 105 -18 143 -47l7 -5v-136l-30 35c-2 2 -41 45 -114 45c-47 0 -81 -28 -81 -62c0 -37 42 -63 87 -63h200l21 -108h-79v-227h-12c-39 -21 -87 -33 -141 -33zM260 253
c-58 0 -90 -30 -90 -79c0 -41 30 -73 85 -73c18 0 32 1 42 3v149h-37z" />
    <glyph glyph-name="parenleft" unicode="(" horiz-adv-x="317" 
d="M280 704c-56 -92 -101 -227 -101 -406c0 -177 45 -310 101 -405h-106c-54 79 -115 212 -115 405c1 195 61 328 115 406h106z" />
    <glyph glyph-name="parenright" unicode=")" horiz-adv-x="310" 
d="M38 704h106c54 -78 114 -211 115 -406c0 -193 -61 -326 -115 -405h-106c56 95 101 228 101 405c0 179 -45 314 -101 406z" />
    <glyph glyph-name="plus" unicode="+" horiz-adv-x="620" 
d="M369 62h-105v182h-182v105h182v179h105v-179h182v-105h-182v-182z" />
    <glyph glyph-name="comma" unicode="," horiz-adv-x="192" 
d="M156 54c0 -14 3 -133 -74 -133v45c10 6 16 20 19 34c-38 0 -70 22 -70 62c0 35 28 63 62 63c38 0 63 -33 63 -71z" />
    <glyph glyph-name="colon" unicode=":" horiz-adv-x="196" 
d="M98 125c35 0 63 -28 63 -63c0 -34 -28 -62 -63 -62c-34 0 -62 28 -62 62c0 35 28 63 62 63zM98 418c35 0 63 -28 63 -63c0 -34 -28 -62 -63 -62c-34 0 -62 28 -62 62c0 35 28 63 62 63z" />
    <glyph glyph-name="semicolon" unicode=";" horiz-adv-x="183" 
d="M156 54c0 -14 3 -133 -74 -133v45c10 6 16 20 19 34c-38 0 -70 22 -70 62c0 35 28 63 62 63c38 0 63 -33 63 -71zM93 418c35 0 63 -28 63 -63c0 -34 -28 -62 -63 -62c-34 0 -62 28 -62 62c0 35 28 63 62 63z" />
    <glyph glyph-name="slash" unicode="/" horiz-adv-x="355" 
d="M141 -1h-111l203 589h111z" />
    <glyph glyph-name="quotedblbase" unicode="&#x201e;" horiz-adv-x="353" 
d="M156 54c0 -14 3 -133 -74 -133v45c10 6 16 20 19 34c-38 0 -70 22 -70 62c0 35 28 63 62 63c38 0 63 -33 63 -71zM307 54c0 -14 3 -133 -74 -133v45c10 6 16 20 19 34c-38 0 -70 22 -70 62c0 35 28 63 62 63c38 0 63 -33 63 -71z" />
    <glyph glyph-name="equal" unicode="=" horiz-adv-x="485" 
d="M76 260h329v-94h-329v94zM76 453h329v-94h-329v94z" />
    <glyph glyph-name="question" unicode="?" horiz-adv-x="407" 
d="M321 549c36 -32 54 -73 54 -121c0 -87 -63 -140 -148 -159v-82h-101v176h54c43 0 86 24 86 63c0 35 -34 60 -80 60c-68 0 -114 -40 -142 -74v131c47 32 85 51 148 51c50 0 93 -15 129 -45zM176 124c35 0 63 -28 63 -63c0 -33 -28 -61 -63 -61c-33 0 -61 28 -61 61
c0 35 28 63 61 63z" />
    <glyph glyph-name="at" unicode="@" horiz-adv-x="673" 
d="M335 443c81 0 146 -66 146 -147l-1 -86h84c8 32 12 57 12 86c0 33 -6 65 -18 94c-13 29 -30 55 -52 77s-48 39 -77 52c-29 12 -61 18 -94 18c-32 0 -64 -6 -93 -18c-29 -13 -55 -30 -77 -52s-39 -48 -52 -77c-12 -29 -19 -61 -19 -94c0 -32 7 -64 19 -93
c13 -29 30 -55 52 -77s48 -39 77 -52c29 -12 61 -19 93 -19c33 0 65 7 94 19c7 3 13 6 19 9l30 -52c-42 -22 -91 -36 -143 -36c-166 0 -301 135 -301 301c0 167 135 301 301 301c167 0 301 -134 301 -301c0 -48 -8 -110 -26 -146h-275c-80 0 -146 66 -146 146
c0 81 66 147 146 147zM420 210l1 86c0 48 -38 87 -86 87c-47 0 -86 -39 -86 -87c0 -47 39 -86 86 -86h85z" />
    <glyph glyph-name="copyright" unicode="&#xa9;" horiz-adv-x="392" 
d="M191 634c87 0 157 -70 157 -157c0 -86 -70 -157 -157 -157c-86 0 -156 71 -156 157c0 87 70 157 156 157zM191 367c61 0 110 49 110 110s-49 110 -110 110c-60 0 -109 -49 -109 -110s49 -110 109 -110zM248 434v-37c-14 -7 -30 -10 -46 -10c-53 0 -96 39 -96 91
c0 49 40 91 96 91c11 0 32 -3 44 -9v-36c-20 9 -33 12 -47 12c-32 0 -58 -25 -58 -58c0 -36 25 -58 59 -58c16 0 27 5 48 14z" />
    <glyph glyph-name="registered" unicode="&#xae;" horiz-adv-x="377" 
d="M190 634c86 0 156 -70 156 -157c0 -86 -70 -157 -156 -157c-87 0 -157 71 -157 157c0 87 70 157 157 157zM271 403c18 20 28 46 28 74c0 61 -49 110 -109 110c-61 0 -110 -49 -110 -110s49 -110 110 -110c24 0 47 9 65 22h-17c-21 49 -33 75 -51 75h-13v-75h-34v178h50
c35 0 63 -16 63 -52c0 -18 -7 -29 -22 -40c8 -9 31 -54 40 -72zM218 515c0 14 -9 20 -28 20h-16v-39h15c25 0 29 9 29 19z" />
    <glyph glyph-name="backslash" unicode="\" horiz-adv-x="353" 
d="M229 -1l-203 589h111l203 -589h-111z" />
    <glyph glyph-name="trademark" unicode="&#x2122;" horiz-adv-x="580" 
d="M507 587h50v-311h-59v208l-85 -105l-85 105v-208h-59v311h49l95 -116zM19 531v56h221v-56h-81v-255h-59v255h-81z" />
    <glyph glyph-name="hungarumlaut" unicode="&#x2dd;" horiz-adv-x="232" 
 />
    <glyph glyph-name="numbersign" unicode="#" horiz-adv-x="686" 
d="M407 0h-109l33 159h-69l-33 -159h-108l32 159h-71l20 107h74l14 72h-95l22 107h96l32 155h109l-32 -155h69l32 155h108l-31 -155h80l-31 -107h-72l-14 -72h111l-24 -107h-110zM285 266h69l14 72h-69z" />
    <glyph glyph-name="macron" unicode="&#xaf;" horiz-adv-x="833" 
 />
    <glyph glyph-name="Agrave" unicode="&#xc0;" 
d="M572 0h-119l-66 159h-188l-59 -159h-121l242 587h69zM295 396l-51 -132h98zM232 800l114 -150h-119l-113 150h118z" />
    <glyph glyph-name="Aacute" unicode="&#xc1;" 
d="M572 0h-119l-66 159h-188l-59 -159h-121l242 587h69zM295 396l-51 -132h98zM232 650l114 150h118l-113 -150h-119z" />
    <glyph glyph-name="Acircumflex" unicode="&#xc2;" 
d="M572 0h-119l-66 159h-188l-59 -159h-121l242 587h69zM295 396l-51 -132h98zM369 761l118 -128h-138l-54 64l-54 -64h-139l118 128h149z" />
    <glyph glyph-name="Atilde" unicode="&#xc3;" 
d="M572 0h-119l-66 159h-188l-59 -159h-121l242 587h69zM295 396l-51 -132h98zM469 759c1 -91 -28 -135 -91 -135c-59 0 -107 55 -144 55c-6 0 -17 0 -20 -50h-77c0 88 32 133 95 133c49 0 121 -53 145 -53c9 0 14 14 16 50h76z" />
    <glyph glyph-name="Adieresis" unicode="&#xc4;" 
d="M572 0h-119l-66 159h-188l-59 -159h-121l242 587h69zM295 396l-51 -132h98zM213 756c34 0 61 -27 61 -61c0 -33 -27 -61 -61 -61s-61 28 -61 61c0 34 27 61 61 61zM383 756c34 0 61 -27 61 -61c0 -33 -27 -61 -61 -61s-61 28 -61 61c0 34 27 61 61 61z" />
    <glyph glyph-name="Egrave" unicode="&#xc8;" horiz-adv-x="469" 
d="M401 0h-333v587h328v-105h-216v-134h209v-105h-209v-138h221v-105zM186 800l114 -150h-119l-113 150h118z" />
    <glyph glyph-name="Eacute" unicode="&#xc9;" horiz-adv-x="479" 
d="M401 0h-333v587h328v-105h-216v-134h209v-105h-209v-138h221v-105zM181 650l114 150h118l-113 -150h-119z" />
    <glyph glyph-name="Ecircumflex" unicode="&#xca;" horiz-adv-x="519" 
d="M430 0h-333v587h328v-105h-216v-134h209v-105h-209v-138h221v-105zM335 778l118 -128h-138l-54 64l-54 -64h-139l118 128h149z" />
    <glyph glyph-name="Edieresis" unicode="&#xcb;" horiz-adv-x="467" 
d="M401 0h-333v587h328v-105h-216v-134h209v-105h-209v-138h221v-105zM323 770c34 0 61 -27 61 -61c0 -33 -27 -61 -61 -61s-61 28 -61 61c0 34 27 61 61 61zM153 770c34 0 61 -27 61 -61c0 -33 -27 -61 -61 -61s-61 28 -61 61c0 34 27 61 61 61z" />
    <glyph glyph-name="Igrave" unicode="&#xcc;" horiz-adv-x="258" 
d="M179 0h-111v587h111v-587zM89 800l114 -150h-119l-113 150h118z" />
    <glyph glyph-name="Iacute" unicode="&#xcd;" horiz-adv-x="258" 
d="M179 0h-111v587h111v-587zM54 650l114 150h118l-113 -150h-119z" />
    <glyph glyph-name="Icircumflex" unicode="&#xce;" horiz-adv-x="258" 
d="M179 0h-111v587h111v-587zM192 778l118 -128h-138l-54 64l-54 -64h-139l118 128h149z" />
    <glyph glyph-name="Idieresis" unicode="&#xcf;" horiz-adv-x="258" 
d="M179 0h-111v587h111v-587zM209 770c34 0 61 -27 61 -61c0 -33 -27 -61 -61 -61s-61 28 -61 61c0 34 27 61 61 61zM39 770c34 0 61 -27 61 -61c0 -33 -27 -61 -61 -61s-61 28 -61 61c0 34 27 61 61 61z" />
    <glyph glyph-name="egrave" unicode="&#xe8;" horiz-adv-x="469" 
d="M401 0h-333v587h328v-105h-216v-134h209v-105h-209v-138h221v-105zM186 800l114 -150h-119l-113 150h118z" />
    <glyph glyph-name="eacute" unicode="&#xe9;" horiz-adv-x="479" 
d="M401 0h-333v587h328v-105h-216v-134h209v-105h-209v-138h221v-105zM181 650l114 150h118l-113 -150h-119z" />
    <glyph glyph-name="ecircumflex" unicode="&#xea;" horiz-adv-x="519" 
d="M430 0h-333v587h328v-105h-216v-134h209v-105h-209v-138h221v-105zM335 778l118 -128h-138l-54 64l-54 -64h-139l118 128h149z" />
    <glyph glyph-name="edieresis" unicode="&#xeb;" horiz-adv-x="467" 
d="M401 0h-333v587h328v-105h-216v-134h209v-105h-209v-138h221v-105zM323 770c34 0 61 -27 61 -61c0 -33 -27 -61 -61 -61s-61 28 -61 61c0 34 27 61 61 61zM153 770c34 0 61 -27 61 -61c0 -33 -27 -61 -61 -61s-61 28 -61 61c0 34 27 61 61 61z" />
    <glyph glyph-name="igrave" unicode="&#xec;" horiz-adv-x="258" 
d="M179 0h-111v587h111v-587zM89 800l114 -150h-119l-113 150h118z" />
    <glyph glyph-name="iacute" unicode="&#xed;" horiz-adv-x="258" 
d="M179 0h-111v587h111v-587zM54 650l114 150h118l-113 -150h-119z" />
    <glyph glyph-name="icircumflex" unicode="&#xee;" horiz-adv-x="258" 
d="M179 0h-111v587h111v-587zM192 778l118 -128h-138l-54 64l-54 -64h-139l118 128h149z" />
    <glyph glyph-name="idieresis" unicode="&#xef;" horiz-adv-x="258" 
d="M179 0h-111v587h111v-587zM209 770c34 0 61 -27 61 -61c0 -33 -27 -61 -61 -61s-61 28 -61 61c0 34 27 61 61 61zM39 770c34 0 61 -27 61 -61c0 -33 -27 -61 -61 -61s-61 28 -61 61c0 34 27 61 61 61z" />
    <glyph glyph-name="Ntilde" unicode="&#xd1;" horiz-adv-x="617" 
d="M557 0h-86l-312 387v-387h-112v587h87l311 -387v387h112v-587zM457 780c1 -91 -28 -135 -91 -135c-59 0 -107 55 -144 55c-6 0 -17 0 -20 -50h-77c0 88 32 133 95 133c49 0 121 -53 145 -53c9 0 14 14 16 50h76z" />
    <glyph glyph-name="Ograve" unicode="&#xd2;" horiz-adv-x="687" 
d="M341 -8c-175 0 -309 132 -309 301c0 170 137 301 309 301s309 -130 309 -301c0 -167 -135 -301 -309 -301zM341 485c-107 0 -194 -88 -194 -192c0 -107 88 -192 194 -192c109 0 194 90 194 192c0 100 -82 192 -194 192zM281 800l114 -150h-119l-113 150h118z" />
    <glyph glyph-name="Oacute" unicode="&#xd3;" horiz-adv-x="687" 
d="M341 -8c-175 0 -309 132 -309 301c0 170 137 301 309 301s309 -130 309 -301c0 -167 -135 -301 -309 -301zM341 485c-107 0 -194 -88 -194 -192c0 -107 88 -192 194 -192c109 0 194 90 194 192c0 100 -82 192 -194 192zM293 650l114 150h118l-113 -150h-119z" />
    <glyph glyph-name="Ocircumflex" unicode="&#xd4;" horiz-adv-x="687" 
d="M341 -8c-175 0 -309 132 -309 301c0 170 137 301 309 301s309 -130 309 -301c0 -167 -135 -301 -309 -301zM341 485c-107 0 -194 -88 -194 -192c0 -107 88 -192 194 -192c109 0 194 90 194 192c0 100 -82 192 -194 192zM421 778l118 -128h-138l-54 64l-54 -64h-139
l118 128h149z" />
    <glyph glyph-name="Otilde" unicode="&#xd5;" horiz-adv-x="687" 
d="M341 -8c-175 0 -309 132 -309 301c0 170 137 301 309 301s309 -130 309 -301c0 -167 -135 -301 -309 -301zM341 485c-107 0 -194 -88 -194 -192c0 -107 88 -192 194 -192c109 0 194 90 194 192c0 100 -82 192 -194 192zM505 780c1 -91 -28 -135 -91 -135
c-59 0 -107 55 -144 55c-6 0 -17 0 -20 -50h-77c0 88 32 133 95 133c49 0 121 -53 145 -53c9 0 14 14 16 50h76z" />
    <glyph glyph-name="Odieresis" unicode="&#xd6;" horiz-adv-x="687" 
d="M341 -8c-175 0 -309 132 -309 301c0 170 137 301 309 301s309 -130 309 -301c0 -167 -135 -301 -309 -301zM341 485c-107 0 -194 -88 -194 -192c0 -107 88 -192 194 -192c109 0 194 90 194 192c0 100 -82 192 -194 192zM256 770c34 0 61 -27 61 -61
c0 -33 -27 -61 -61 -61s-61 28 -61 61c0 34 27 61 61 61zM426 770c34 0 61 -27 61 -61c0 -33 -27 -61 -61 -61s-61 28 -61 61c0 34 27 61 61 61z" />
    <glyph glyph-name="ograve" unicode="&#xf2;" horiz-adv-x="687" 
d="M341 -8c-175 0 -309 132 -309 301c0 170 137 301 309 301s309 -130 309 -301c0 -167 -135 -301 -309 -301zM341 485c-107 0 -194 -88 -194 -192c0 -107 88 -192 194 -192c109 0 194 90 194 192c0 100 -82 192 -194 192zM281 800l114 -150h-119l-113 150h118z" />
    <glyph glyph-name="oacute" unicode="&#xf3;" horiz-adv-x="687" 
d="M341 -8c-175 0 -309 132 -309 301c0 170 137 301 309 301s309 -130 309 -301c0 -167 -135 -301 -309 -301zM341 485c-107 0 -194 -88 -194 -192c0 -107 88 -192 194 -192c109 0 194 90 194 192c0 100 -82 192 -194 192zM293 650l114 150h118l-113 -150h-119z" />
    <glyph glyph-name="ocircumflex" unicode="&#xf4;" horiz-adv-x="687" 
d="M341 -8c-175 0 -309 132 -309 301c0 170 137 301 309 301s309 -130 309 -301c0 -167 -135 -301 -309 -301zM341 485c-107 0 -194 -88 -194 -192c0 -107 88 -192 194 -192c109 0 194 90 194 192c0 100 -82 192 -194 192zM421 778l118 -128h-138l-54 64l-54 -64h-139
l118 128h149z" />
    <glyph glyph-name="otilde" unicode="&#xf5;" horiz-adv-x="687" 
d="M341 -8c-175 0 -309 132 -309 301c0 170 137 301 309 301s309 -130 309 -301c0 -167 -135 -301 -309 -301zM341 485c-107 0 -194 -88 -194 -192c0 -107 88 -192 194 -192c109 0 194 90 194 192c0 100 -82 192 -194 192zM505 780c1 -91 -28 -135 -91 -135
c-59 0 -107 55 -144 55c-6 0 -17 0 -20 -50h-77c0 88 32 133 95 133c49 0 121 -53 145 -53c9 0 14 14 16 50h76z" />
    <glyph glyph-name="odieresis" unicode="&#xf6;" horiz-adv-x="687" 
d="M341 -8c-175 0 -309 132 -309 301c0 170 137 301 309 301s309 -130 309 -301c0 -167 -135 -301 -309 -301zM341 485c-107 0 -194 -88 -194 -192c0 -107 88 -192 194 -192c109 0 194 90 194 192c0 100 -82 192 -194 192zM256 770c34 0 61 -27 61 -61
c0 -33 -27 -61 -61 -61s-61 28 -61 61c0 34 27 61 61 61zM426 770c34 0 61 -27 61 -61c0 -33 -27 -61 -61 -61s-61 28 -61 61c0 34 27 61 61 61z" />
    <glyph glyph-name="Ugrave" unicode="&#xd9;" horiz-adv-x="591" 
d="M291 -8c-125 0 -239 109 -239 263v332h112v-329c0 -110 67 -157 128 -157c68 0 125 62 125 161v325h112v-328c0 -167 -118 -267 -238 -267zM234 800l114 -150h-119l-113 150h118z" />
    <glyph glyph-name="Uacute" unicode="&#xda;" horiz-adv-x="591" 
d="M291 -8c-125 0 -239 109 -239 263v332h112v-329c0 -110 67 -157 128 -157c68 0 125 62 125 161v325h112v-328c0 -167 -118 -267 -238 -267zM224 650l114 150h118l-113 -150h-119z" />
    <glyph glyph-name="Ucircumflex" unicode="&#xdb;" horiz-adv-x="591" 
d="M291 -8c-125 0 -239 109 -239 263v332h112v-329c0 -110 67 -157 128 -157c68 0 125 62 125 161v325h112v-328c0 -167 -118 -267 -238 -267zM368 778l118 -128h-138l-54 64l-54 -64h-139l118 128h149z" />
    <glyph glyph-name="Udieresis" unicode="&#xdc;" horiz-adv-x="591" 
d="M291 -8c-125 0 -239 109 -239 263v332h112v-329c0 -110 67 -157 128 -157c68 0 125 62 125 161v325h112v-328c0 -167 -118 -267 -238 -267zM210 770c34 0 61 -27 61 -61c0 -33 -27 -61 -61 -61s-61 28 -61 61c0 34 27 61 61 61zM380 770c34 0 61 -27 61 -61
c0 -33 -27 -61 -61 -61s-61 28 -61 61c0 34 27 61 61 61z" />
    <glyph glyph-name="ugrave" unicode="&#xf9;" horiz-adv-x="591" 
d="M291 -8c-125 0 -239 109 -239 263v332h112v-329c0 -110 67 -157 128 -157c68 0 125 62 125 161v325h112v-328c0 -167 -118 -267 -238 -267zM234 800l114 -150h-119l-113 150h118z" />
    <glyph glyph-name="uacute" unicode="&#xfa;" horiz-adv-x="591" 
d="M291 -8c-125 0 -239 109 -239 263v332h112v-329c0 -110 67 -157 128 -157c68 0 125 62 125 161v325h112v-328c0 -167 -118 -267 -238 -267zM224 650l114 150h118l-113 -150h-119z" />
    <glyph glyph-name="ucircumflex" unicode="&#xfb;" horiz-adv-x="591" 
d="M291 -8c-125 0 -239 109 -239 263v332h112v-329c0 -110 67 -157 128 -157c68 0 125 62 125 161v325h112v-328c0 -167 -118 -267 -238 -267zM368 778l118 -128h-138l-54 64l-54 -64h-139l118 128h149z" />
    <glyph glyph-name="udieresis" unicode="&#xfc;" horiz-adv-x="591" 
d="M291 -8c-125 0 -239 109 -239 263v332h112v-329c0 -110 67 -157 128 -157c68 0 125 62 125 161v325h112v-328c0 -167 -118 -267 -238 -267zM210 770c34 0 61 -27 61 -61c0 -33 -27 -61 -61 -61s-61 28 -61 61c0 34 27 61 61 61zM380 770c34 0 61 -27 61 -61
c0 -33 -27 -61 -61 -61s-61 28 -61 61c0 34 27 61 61 61z" />
    <glyph glyph-name="Yacute" unicode="&#xdd;" horiz-adv-x="535" 
d="M323 0h-112v203l-220 384h137l140 -251l139 251h138l-222 -384v-203zM219 650l114 150h118l-113 -150h-119z" />
    <glyph glyph-name="yacute" unicode="&#xfd;" horiz-adv-x="535" 
d="M323 0h-112v203l-220 384h137l140 -251l139 251h138l-222 -384v-203zM219 650l114 150h118l-113 -150h-119z" />
    <glyph glyph-name="ydieresis" unicode="&#xff;" horiz-adv-x="535" 
d="M323 0h-112v203l-220 384h137l140 -251l139 251h138l-222 -384v-203zM345 770c34 0 61 -27 61 -61c0 -33 -27 -61 -61 -61s-61 28 -61 61c0 34 27 61 61 61zM175 770c34 0 61 -27 61 -61c0 -33 -27 -61 -61 -61s-61 28 -61 61c0 34 27 61 61 61z" />
    <glyph glyph-name="Ydieresis" unicode="&#x178;" horiz-adv-x="535" 
d="M323 0h-112v203l-220 384h137l140 -251l139 251h138l-222 -384v-203zM358 770c34 0 61 -27 61 -61c0 -33 -27 -61 -61 -61s-61 28 -61 61c0 34 27 61 61 61zM188 770c34 0 61 -27 61 -61c0 -33 -27 -61 -61 -61s-61 28 -61 61c0 34 27 61 61 61z" />
    <glyph glyph-name="Scaron" unicode="&#x160;" horiz-adv-x="468" 
d="M217 -7c-93 0 -162 57 -171 65v124c28 -21 108 -80 164 -80c42 0 75 28 75 67c0 38 -19 56 -100 84c-109 37 -146 94 -146 171c0 94 80 171 183 171c76 0 142 -40 151 -46v-134c-29 27 -78 71 -147 71c-42 0 -72 -30 -72 -60c0 -33 16 -48 87 -74
c111 -41 158 -83 158 -185c0 -93 -81 -174 -182 -174zM156 650l-117 129h138l54 -64l54 64h138l-118 -129h-149z" />
    <glyph glyph-name="scaron" unicode="&#x161;" horiz-adv-x="491" 
d="M179 650l-117 129h138l54 -64l54 64h138l-118 -129h-149zM217 -7c-93 0 -162 57 -171 65v124c28 -21 108 -80 164 -80c42 0 75 28 75 67c0 38 -19 56 -100 84c-109 37 -146 94 -146 171c0 94 80 171 183 171c76 0 142 -40 151 -46v-134c-29 27 -78 71 -147 71
c-42 0 -72 -30 -72 -60c0 -33 16 -48 87 -74c111 -41 158 -83 158 -185c0 -93 -81 -174 -182 -174z" />
    <glyph glyph-name="Euro" unicode="&#x20ac;" horiz-adv-x="602" 
d="M573 149v-120l-10 -5c-15 -6 -21 -7 -33 -11l-6 -2c-36 -12 -71 -16 -103 -16c-137 0 -255 72 -299 192h-94v88h76c0 7 -1 14 -1 21s1 14 1 21h-76v88h95c49 127 172 192 296 192c42 0 98 -11 135 -24l11 -4v-122l-24 11c-46 21 -86 29 -129 30c-68 0 -123 -28 -162 -83
h304v-88h-335v-42h335v-88h-306c39 -56 94 -83 166 -83c50 0 93 13 134 33z" />
    <glyph glyph-name="perthousand" unicode="&#x2030;" horiz-adv-x="1090" 
d="M560 -15c-84 0 -157 71 -157 156c0 88 70 157 157 157s159 -72 159 -157c0 -82 -70 -156 -159 -156zM683 593l-472 -600h-131l474 600h129zM562 194c-28 0 -55 -23 -55 -52c0 -30 25 -52 54 -52c32 0 53 25 53 50c0 28 -22 54 -52 54zM202 295c-88 0 -157 70 -157 157
c0 88 70 157 157 157c88 0 158 -71 158 -157s-72 -157 -158 -157zM204 505c-32 0 -55 -24 -55 -52c0 -30 24 -54 54 -54s53 27 53 52c0 29 -26 54 -52 54zM898 -15c-84 0 -157 71 -157 156c0 88 70 157 157 157s159 -72 159 -157c0 -82 -70 -156 -159 -156zM900 194
c-28 0 -55 -23 -55 -52c0 -30 25 -52 54 -52c32 0 53 25 53 50c0 28 -22 54 -52 54z" />
    <glyph glyph-name="ellipsis" unicode="&#x2026;" horiz-adv-x="576" 
d="M94 132c37 0 67 -30 67 -67c0 -35 -30 -65 -67 -65c-35 0 -65 30 -65 65c0 37 30 67 65 67zM287 132c37 0 67 -30 67 -67c0 -35 -30 -65 -67 -65c-35 0 -65 30 -65 65c0 37 30 67 65 67zM478 132c37 0 67 -30 67 -67c0 -35 -30 -65 -67 -65c-35 0 -65 30 -65 65
c0 37 30 67 65 67z" />
    <glyph glyph-name="quotesinglbase" unicode="&#x201a;" horiz-adv-x="205" 
d="M156 54c0 -14 3 -133 -74 -133v45c10 6 16 20 19 34c-38 0 -70 22 -70 62c0 35 28 63 62 63c38 0 63 -33 63 -71z" />
    <glyph glyph-name="Eth" unicode="&#xd0;" horiz-adv-x="623" 
d="M564 413c14 -35 21 -76 21 -120c0 -175 -124 -293 -307 -293h-184v238h-99v110h99v239h178c137 0 248 -62 292 -174zM267 105c112 0 203 65 203 188c0 113 -78 189 -201 189h-63v-134h103v-110h-103v-133h61z" />
    <glyph glyph-name="multiply" unicode="&#xd7;" 
d="M165 99l-75 74l129 128l-129 129l75 74l128 -128l127 127l74 -75l-127 -127l129 -128l-75 -74l-128 128z" />
    <glyph glyph-name="quoteright" unicode="&#x2019;" horiz-adv-x="196" 
d="M161 556c0 -14 3 -133 -74 -133v45c10 6 16 20 19 34c-38 0 -70 22 -70 62c0 35 28 63 62 63c38 0 63 -33 63 -71z" />
    <glyph glyph-name="quotedblright" unicode="&#x201d;" horiz-adv-x="360" 
d="M161 556c0 -14 3 -133 -74 -133v45c10 6 16 20 19 34c-38 0 -70 22 -70 62c0 35 28 63 62 63c38 0 63 -33 63 -71zM312 556c0 -14 3 -133 -74 -133v45c10 6 16 20 19 34c-38 0 -70 22 -70 62c0 35 28 63 62 63c38 0 63 -33 63 -71z" />
    <glyph glyph-name="quotedblleft" unicode="&#x201c;" horiz-adv-x="357" 
d="M41 494c0 14 -3 133 74 133v-45c-10 -6 -16 -20 -19 -34c38 0 70 -22 70 -62c0 -35 -28 -63 -62 -63c-38 0 -63 33 -63 71zM193 494c0 14 -3 133 74 133v-45c-10 -6 -16 -20 -19 -34c38 0 70 -22 70 -62c0 -35 -28 -63 -62 -63c-38 0 -63 33 -63 71z" />
    <glyph glyph-name="quoteleft" unicode="&#x2018;" horiz-adv-x="199" 
d="M41 494c0 14 -3 133 74 133v-45c-10 -6 -16 -20 -19 -34c38 0 70 -22 70 -62c0 -35 -28 -63 -62 -63c-38 0 -63 33 -63 71z" />
    <glyph glyph-name="Ccedilla" unicode="&#xc7;" horiz-adv-x="549" 
d="M356 -6h-12v-28c4 1 8 1 12 1c79 0 121 -52 121 -115c0 -73 -52 -120 -117 -120c-32 0 -65 8 -97 29v78c17 -14 53 -43 95 -43c32 0 55 22 55 55c0 36 -28 54 -64 54c-26 0 -55 -10 -69 -15v111c-144 30 -242 147 -242 294c0 173 142 300 316 300c42 0 102 -9 146 -28
v-121c-70 33 -110 40 -153 40c-111 0 -194 -84 -194 -191c0 -116 81 -192 196 -192c50 0 98 12 159 45v-121c-54 -22 -101 -33 -152 -33z" />
    <glyph glyph-name="ccedilla" unicode="&#xe7;" horiz-adv-x="549" 
d="M356 -6h-12v-28c4 1 8 1 12 1c79 0 121 -52 121 -115c0 -73 -52 -120 -117 -120c-32 0 -65 8 -97 29v78c17 -14 53 -43 95 -43c32 0 55 22 55 55c0 36 -28 54 -64 54c-26 0 -55 -10 -69 -15v111c-144 30 -242 147 -242 294c0 173 142 300 316 300c42 0 102 -9 146 -28
v-121c-70 33 -110 40 -153 40c-111 0 -194 -84 -194 -191c0 -116 81 -192 196 -192c50 0 98 12 159 45v-121c-54 -22 -101 -33 -152 -33z" />
    <glyph glyph-name="divide" unicode="&#xf7;" horiz-adv-x="426" 
d="M43 394h334v-94h-334v94zM213 263c35 0 63 -28 63 -63c0 -34 -28 -62 -63 -62c-34 0 -62 28 -62 62c0 35 28 63 62 63zM213 556c35 0 63 -28 63 -63c0 -34 -28 -62 -63 -62c-34 0 -62 28 -62 62c0 35 28 63 62 63z" />
    <glyph glyph-name="hyphen" unicode="-" horiz-adv-x="624" 
d="M541 394v-94h-442v94h442z" />
    <glyph glyph-name="minus" unicode="&#x2212;" horiz-adv-x="623" 
d="M99 394h442v-94h-442v94z" />
    <glyph glyph-name="endash" unicode="&#x2013;" horiz-adv-x="684" 
d="M99 394h502v-94h-502v94z" />
    <glyph glyph-name="emdash" unicode="&#x2014;" horiz-adv-x="818" 
d="M99 394h625v-94h-625v94z" />
    <glyph glyph-name="underscore" unicode="_" horiz-adv-x="476" 
d="M12 0h442v-94h-442v94z" />
    <glyph glyph-name="bullet" unicode="&#x2022;" horiz-adv-x="317" 
d="M157 395c52 0 94 -42 94 -94c0 -51 -42 -93 -94 -93c-51 0 -93 42 -93 93c0 52 42 94 93 94z" />
    <glyph glyph-name="periodcentered" unicode="&#xb7;" horiz-adv-x="302" 
d="M146 379c39 0 70 -31 70 -70c0 -36 -31 -67 -70 -67c-36 0 -67 31 -67 67c0 39 31 70 67 70z" />
    <glyph glyph-name="dieresis" unicode="&#xa8;" horiz-adv-x="371" 
d="M98 652c34 0 61 -27 61 -61c0 -33 -27 -61 -61 -61s-61 28 -61 61c0 34 27 61 61 61zM268 652c34 0 61 -27 61 -61c0 -33 -27 -61 -61 -61s-61 28 -61 61c0 34 27 61 61 61z" />
    <glyph glyph-name="grave" unicode="`" horiz-adv-x="282" 
d="M148 650l114 -150h-119l-113 150h118z" />
    <glyph glyph-name="acute" unicode="&#xb4;" horiz-adv-x="289" 
d="M30 500l114 150h118l-113 -150h-119z" />
    <glyph glyph-name="circumflex" unicode="&#x2c6;" horiz-adv-x="433" 
d="M284 650l118 -128h-138l-54 64l-54 -64h-139l118 128h149z" />
    <glyph glyph-name="tilde" unicode="&#x2dc;" horiz-adv-x="416" 
d="M371 646c1 -91 -28 -135 -91 -135c-59 0 -107 55 -144 55c-6 0 -17 0 -20 -50h-77c0 88 32 133 95 133c49 0 121 -53 145 -53c9 0 14 14 16 50h76z" />
    <glyph glyph-name="asciitilde" unicode="~" horiz-adv-x="464" 
d="M400 361c0 -82 -29 -126 -92 -126c-31 0 -54 10 -90 30l-1 1c-25 14 -41 24 -53 24c-6 0 -17 0 -19 -42l-1 -8h-77v9c0 79 32 124 95 124c49 0 121 -53 145 -53c9 0 14 14 15 41l1 9h76z" />
    <glyph glyph-name="less" unicode="&#x3c;" horiz-adv-x="343" 
d="M157 299l119 -190h-105l-116 190l115 192h106z" />
    <glyph glyph-name="greater" unicode="&#x3e;" horiz-adv-x="328" 
d="M174 299l-119 192h106l115 -192l-116 -190h-105z" />
    <glyph glyph-name="guilsinglleft" unicode="&#x2039;" horiz-adv-x="358" 
d="M276 491l-119 -192l119 -190h-105l-116 190l115 192h106z" />
    <glyph glyph-name="guilsinglright" unicode="&#x203a;" horiz-adv-x="322" 
d="M174 299l-119 192h106l115 -192l-116 -190h-105z" />
    <glyph glyph-name="guillemotleft" unicode="&#xab;" horiz-adv-x="498" 
d="M267 491l-119 -192l119 -190h-105l-116 190l115 192h106zM469 491l-119 -192l119 -190h-105l-116 190l115 192h106z" />
    <glyph glyph-name="guillemotright" unicode="&#xbb;" horiz-adv-x="518" 
d="M367 299l-119 192h106l115 -192l-116 -190h-105zM165 299l-119 192h106l115 -192l-116 -190h-105z" />
    <glyph glyph-name="asterisk" unicode="*" horiz-adv-x="336" 
d="M290 489v-57h-57l41 -41l-41 -40l-40 40v-57h-57v59l-41 -42l-41 40l41 41h-57v57h58l-42 41l41 40l41 -41v58h57v-57l39 39l41 -40l-41 -40h58z" />
    <glyph glyph-name="quotesingle" unicode="'" horiz-adv-x="209" 
d="M150 302h-93v285h93v-285z" />
    <glyph glyph-name="quotedbl" unicode="&#x22;" horiz-adv-x="367" 
d="M150 587v-285h-93v285h93zM301 587v-285h-93v285h93z" />
    <glyph glyph-name="asciicircum" unicode="^" horiz-adv-x="504" 
d="M254 515l-191 -120v105l191 117l191 -116v-106z" />
    <glyph glyph-name="bracketleft" unicode="[" horiz-adv-x="321" 
d="M71 -99v801h205v-84h-96v-632h96v-85h-205z" />
    <glyph glyph-name="bracketright" unicode="]" horiz-adv-x="330" 
d="M255 -99h-205v85h96v632h-96v84h205v-801z" />
    <glyph glyph-name="bar" unicode="|" horiz-adv-x="273" 
d="M188 649v-724h-93v724h93z" />
    <glyph glyph-name="braceleft" unicode="{" horiz-adv-x="344" 
d="M280 612c-45 -1 -61 -27 -61 -71v-127c0 -75 -19 -104 -76 -116v-2c57 -11 76 -40 76 -117v-126c0 -43 15 -72 61 -72h18v-85h-36c-89 0 -151 36 -151 137v157c0 27 4 66 -65 69v76c68 3 64 39 65 69v158c0 94 59 135 152 135h35v-85h-18z" />
    <glyph glyph-name="braceright" unicode="}" horiz-adv-x="332" 
d="M64 612h-18v85h35c93 0 152 -41 152 -135v-158c1 -30 -3 -66 65 -69v-76c-69 -3 -65 -42 -65 -69v-157c0 -101 -62 -137 -151 -137h-36v85h18c46 0 61 29 61 72v126c0 77 19 106 76 117v2c-57 12 -76 41 -76 116v127c0 43 -16 71 -61 71z" />
    <glyph glyph-name="breve" unicode="&#x2d8;" horiz-adv-x="382" 
d="M246 750h104c0 -43 -15 -80 -46 -111s-69 -47 -111 -47c-45 0 -83 15 -113 46s-45 68 -45 112h104c0 -16 5 -27 16 -37c11 -11 23 -17 38 -17s27 5 37 16c11 10 16 24 16 38z" />
    <glyph glyph-name="Abreve" unicode="&#x102;" 
d="M572 0h-119l-66 159h-188l-59 -159h-121l242 587h69zM295 396l-51 -132h98zM353 806h104c0 -43 -15 -80 -46 -111s-69 -47 -111 -47c-45 0 -83 15 -113 46s-45 68 -45 112h104c0 -16 5 -27 16 -37c11 -11 23 -17 38 -17s27 5 37 16c11 10 16 24 16 38z" />
    <glyph glyph-name="abreve" unicode="&#x103;" 
d="M572 0h-119l-66 159h-188l-59 -159h-121l242 587h69zM295 396l-51 -132h98zM349 806h104c0 -43 -15 -80 -46 -111s-69 -47 -111 -47c-45 0 -83 15 -113 46s-45 68 -45 112h104c0 -16 5 -27 16 -37c11 -11 23 -17 38 -17s27 5 37 16c11 10 16 24 16 38z" />
    <glyph glyph-name="caron" unicode="&#x2c7;" horiz-adv-x="420" 
d="M404 750l-118 -128h-149l-118 128h139l54 -64l54 64h138z" />
    <glyph glyph-name="Sacute" unicode="&#x15a;" horiz-adv-x="444" 
d="M217 -7c-93 0 -162 57 -171 65v124c28 -21 108 -80 164 -80c42 0 75 28 75 67c0 38 -19 56 -100 84c-109 37 -146 94 -146 171c0 94 80 171 183 171c76 0 142 -40 151 -46v-134c-29 27 -78 71 -147 71c-42 0 -72 -30 -72 -60c0 -33 16 -48 87 -74
c111 -41 158 -83 158 -185c0 -93 -81 -174 -182 -174zM162 669l114 150h118l-113 -150h-119z" />
    <glyph glyph-name="Tcaron" unicode="&#x164;" horiz-adv-x="512" 
d="M311 0h-112v481h-153v106h417v-106h-152v-481zM448 782l-118 -128h-149l-118 128h139l54 -64l54 64h138z" />
    <glyph glyph-name="Zcaron" unicode="&#x17d;" horiz-adv-x="560" 
d="M505 0h-459l-18 54l300 427h-278v106h441l15 -59l-299 -423h298v-105zM472 787l-118 -128h-149l-118 128h139l54 -64l54 64h138z" />
    <glyph glyph-name="Zacute" unicode="&#x179;" horiz-adv-x="560" 
d="M505 0h-459l-18 54l300 427h-278v106h441l15 -59l-299 -423h298v-105zM227 669l114 150h118l-113 -150h-119z" />
    <glyph glyph-name="sacute" unicode="&#x15b;" horiz-adv-x="444" 
d="M217 -7c-93 0 -162 57 -171 65v124c28 -21 108 -80 164 -80c42 0 75 28 75 67c0 38 -19 56 -100 84c-109 37 -146 94 -146 171c0 94 80 171 183 171c76 0 142 -40 151 -46v-134c-29 27 -78 71 -147 71c-42 0 -72 -30 -72 -60c0 -33 16 -48 87 -74
c111 -41 158 -83 158 -185c0 -93 -81 -174 -182 -174zM159 675l114 150h118l-113 -150h-119z" />
    <glyph glyph-name="zcaron" unicode="&#x17e;" horiz-adv-x="567" 
d="M505 0h-459l-18 54l300 427h-278v106h441l15 -59l-299 -423h298v-105zM476 782l-118 -128h-149l-118 128h139l54 -64l54 64h138z" />
    <glyph glyph-name="zacute" unicode="&#x17a;" horiz-adv-x="567" 
d="M505 0h-459l-18 54l300 427h-278v106h441l15 -59l-299 -423h298v-105zM212 655l114 150h118l-113 -150h-119z" />
    <glyph glyph-name="dotaccent" unicode="&#x2d9;" horiz-adv-x="192" 
d="M98 769c35 0 63 -28 63 -63c0 -34 -28 -62 -63 -62c-34 0 -62 28 -62 62c0 35 28 63 62 63z" />
    <glyph glyph-name="zdotaccent" unicode="&#x17c;" horiz-adv-x="567" 
d="M505 0h-459l-18 54l300 427h-278v106h441l15 -59l-299 -423h298v-105zM283 769c35 0 63 -28 63 -63c0 -34 -28 -62 -63 -62c-34 0 -62 28 -62 62c0 35 28 63 62 63z" />
    <glyph glyph-name="Zdotaccent" unicode="&#x17b;" horiz-adv-x="560" 
d="M505 0h-459l-18 54l300 427h-278v106h441l15 -59l-299 -423h298v-105zM279 774c35 0 63 -28 63 -63c0 -34 -28 -62 -63 -62c-34 0 -62 28 -62 62c0 35 28 63 62 63z" />
    <glyph glyph-name="Ecaron" unicode="&#x11a;" horiz-adv-x="467" 
d="M401 0h-333v587h328v-105h-216v-134h209v-105h-209v-138h221v-105zM426 778l-118 -128h-149l-118 128h139l54 -64l54 64h138z" />
    <glyph glyph-name="ecaron" unicode="&#x11b;" horiz-adv-x="467" 
d="M401 0h-333v587h328v-105h-216v-134h209v-105h-209v-138h221v-105zM426 776l-118 -128h-149l-118 128h139l54 -64l54 64h138z" />
    <glyph glyph-name="Racute" unicode="&#x154;" horiz-adv-x="500" 
d="M500 0h-131l-4 10c-35 74 -97 198 -114 216c-13 14 -30 20 -54 20h-42v-246h-112v587h166c137 0 209 -72 209 -171c0 -60 -25 -99 -72 -133c30 -35 130 -235 142 -259zM155 351h49c56 0 99 14 99 66c0 44 -31 64 -95 64h-53v-130zM152 669l114 150h118l-113 -150h-119z
" />
    <glyph glyph-name="racute" unicode="&#x155;" horiz-adv-x="500" 
d="M500 0h-131l-4 10c-35 74 -97 198 -114 216c-13 14 -30 20 -54 20h-42v-246h-112v587h166c137 0 209 -72 209 -171c0 -60 -25 -99 -72 -133c30 -35 130 -235 142 -259zM155 351h49c56 0 99 14 99 66c0 44 -31 64 -95 64h-53v-130zM151 664l114 150h118l-113 -150h-119z
" />
    <glyph glyph-name="Cacute" unicode="&#x106;" horiz-adv-x="549" 
d="M356 -5c-181 0 -318 126 -318 300c0 177 146 301 315 301c42 0 98 -10 147 -28v-122c-73 33 -110 40 -153 41c-109 0 -194 -82 -194 -192c0 -116 82 -191 196 -191c50 0 90 12 159 45v-121c-53 -22 -101 -33 -152 -33zM274 669l114 150h118l-113 -150h-119z" />
    <glyph glyph-name="cacute" unicode="&#x107;" horiz-adv-x="549" 
d="M356 -5c-181 0 -318 126 -318 300c0 177 146 301 315 301c42 0 98 -10 147 -28v-122c-73 33 -110 40 -153 41c-109 0 -194 -82 -194 -192c0 -116 82 -191 196 -191c50 0 90 12 159 45v-121c-53 -22 -101 -33 -152 -33zM285 680l114 150h118l-113 -150h-119z" />
    <glyph glyph-name="Ccaron" unicode="&#x10c;" horiz-adv-x="549" 
d="M356 -5c-181 0 -318 126 -318 300c0 177 146 301 315 301c42 0 98 -10 147 -28v-122c-73 33 -110 40 -153 41c-109 0 -194 -82 -194 -192c0 -116 82 -191 196 -191c50 0 90 12 159 45v-121c-53 -22 -101 -33 -152 -33zM517 785l-118 -128h-149l-118 128h139l54 -64l54 64
h138z" />
    <glyph glyph-name="ccaron" unicode="&#x10d;" horiz-adv-x="549" 
d="M356 -5c-181 0 -318 126 -318 300c0 177 146 301 315 301c42 0 98 -10 147 -28v-122c-73 33 -110 40 -153 41c-109 0 -194 -82 -194 -192c0 -116 82 -191 196 -191c50 0 90 12 159 45v-121c-53 -22 -101 -33 -152 -33zM523 785l-118 -128h-149l-118 128h139l54 -64l54 64
h138z" />
    <glyph glyph-name="Dcaron" unicode="&#x10e;" horiz-adv-x="602" 
d="M256 -1h-184v588h178c202 0 314 -123 314 -295s-119 -293 -308 -293zM184 104h61c124 0 204 73 204 188c0 114 -78 190 -202 190h-63v-378zM460 781l-118 -128h-149l-118 128h139l54 -64l54 64h138z" />
    <glyph glyph-name="Rcaron" unicode="&#x158;" horiz-adv-x="500" 
d="M500 0h-131l-4 10c-35 74 -97 198 -114 216c-13 14 -30 20 -54 20h-42v-246h-112v587h166c137 0 209 -72 209 -171c0 -60 -25 -99 -72 -133c30 -35 130 -235 142 -259zM155 351h49c56 0 99 14 99 66c0 44 -31 64 -95 64h-53v-130zM411 776l-118 -128h-149l-118 128h139
l54 -64l54 64h138z" />
    <glyph glyph-name="rcaron" unicode="&#x159;" horiz-adv-x="500" 
d="M500 0h-131l-4 10c-35 74 -97 198 -114 216c-13 14 -30 20 -54 20h-42v-246h-112v587h166c137 0 209 -72 209 -171c0 -60 -25 -99 -72 -133c30 -35 130 -235 142 -259zM155 351h49c56 0 99 14 99 66c0 44 -31 64 -95 64h-53v-130zM393 781l-118 -128h-149l-118 128h139
l54 -64l54 64h138z" />
    <glyph glyph-name="Nacute" unicode="&#x143;" horiz-adv-x="617" 
d="M557 0h-86l-312 387v-387h-112v587h87l311 -387v387h112v-587zM250 669l114 150h118l-113 -150h-119z" />
    <glyph glyph-name="nacute" unicode="&#x144;" horiz-adv-x="617" 
d="M557 0h-86l-312 387v-387h-112v587h87l311 -387v387h112v-587zM246 657l114 150h118l-113 -150h-119z" />
    <glyph glyph-name="Ncaron" unicode="&#x147;" horiz-adv-x="617" 
d="M557 0h-86l-312 387v-387h-112v587h87l311 -387v387h112v-587zM501 783l-118 -128h-149l-118 128h139l54 -64l54 64h138z" />
    <glyph glyph-name="ncaron" unicode="&#x148;" horiz-adv-x="617" 
d="M557 0h-86l-312 387v-387h-112v587h87l311 -387v387h112v-587zM501 784l-118 -128h-149l-118 128h139l54 -64l54 64h138z" />
    <glyph glyph-name="OE" unicode="&#x152;" horiz-adv-x="753" 
d="M497 105h221v-105h-378c-47 0 -90 6 -127 19c-38 14 -72 35 -100 63c-54 55 -82 126 -82 211c0 45 7 85 22 121c14 36 36 68 65 95s63 47 100 59c38 13 80 19 127 19h368v-105h-216v-134h209v-106h-209v-137zM385 105v377h-36c-63 0 -113 -17 -149 -52s-54 -80 -54 -137
c0 -58 18 -103 55 -137c36 -34 86 -51 149 -51h35z" />
    <glyph glyph-name="exclamdown" unicode="&#xa1;" horiz-adv-x="203" 
d="M150 273v-390h-93v390h93zM101 357c-34 0 -62 28 -62 63c0 34 28 62 62 62c35 0 63 -28 63 -62c0 -35 -28 -63 -63 -63z" />
    <glyph glyph-name="questiondown" unicode="&#xbf;" horiz-adv-x="373" 
d="M68 -70c-36 32 -54 73 -54 121c0 87 63 140 148 159v82h101v-176h-54c-43 0 -86 -24 -86 -63c0 -35 34 -60 80 -60c68 0 114 40 142 74v-131c-47 -32 -85 -51 -148 -51c-50 0 -93 15 -129 45zM213 355c-35 0 -63 28 -63 63c0 33 28 61 63 61c33 0 61 -28 61 -61
c0 -35 -28 -63 -61 -63z" />
    <glyph glyph-name="cent" unicode="&#xa2;" horiz-adv-x="549" 
d="M508 149v-121c-42 -17 -80 -28 -119 -31v-63h-93v66c-151 25 -258 141 -258 295c0 157 114 272 258 296v67h93v-64c35 -4 75 -13 111 -26v-122c-49 22 -82 33 -111 38v-377c34 5 69 18 119 42zM153 295c0 -97 57 -165 143 -185v371c-84 -21 -143 -94 -143 -186z" />
    <glyph glyph-name="sterling" unicode="&#xa3;" horiz-adv-x="437" 
d="M211 464c-15 -16 -23 -34 -23 -56v-70h137v-107h-137v-30c0 -46 -20 -80 -30 -94h258v-107h-374v107c20 27 35 57 35 94v30h-63v107h63v71c0 51 19 96 55 132c38 36 80 53 133 53c86 0 145 -56 147 -58l5 -5v-139l-29 33c-1 0 -56 61 -119 61c-24 0 -43 -7 -58 -22z" />
    <glyph glyph-name="currency" unicode="&#xa4;" horiz-adv-x="564" 
d="M484 300c0 -42 -12 -79 -35 -110l68 -69l-51 -51l-70 69c-31 -20 -68 -30 -109 -30s-78 10 -109 30l-69 -69l-52 51l68 68c-23 32 -34 69 -34 111s11 79 34 111l-68 67l52 52l69 -69c31 20 68 30 109 30s78 -10 109 -30l70 69l51 -52l-68 -68c23 -31 35 -68 35 -110z
M287 178c35 0 63 12 87 36c25 24 37 52 37 86c0 33 -12 62 -37 86c-24 24 -52 36 -87 36s-63 -12 -87 -36s-36 -52 -36 -86s11 -63 35 -86c24 -24 53 -36 88 -36z" />
    <glyph glyph-name="yen" unicode="&#xa5;" horiz-adv-x="535" 
d="M544 587l-172 -297h60v-94h-110v-38h110v-94h-110v-64h-112v64h-107v94h107v38h-107v94h58l-171 297h137l140 -251l139 251h138z" />
    <glyph glyph-name="dagger" unicode="&#x2020;" horiz-adv-x="492" 
d="M469 394v-94h-175v-375h-93v375h-174v94h174v255h93v-255h175z" />
    <glyph glyph-name="daggerdbl" unicode="&#x2021;" horiz-adv-x="376" 
d="M355 359h-118v-99h118v-94h-118v-241h-93v241h-118v94h118v99h-118v94h118v196h93v-196h118v-94z" />
    <glyph glyph-name="brokenbar" unicode="&#xa6;" horiz-adv-x="230" 
d="M72 587h93v-247h-93v247zM72 247h93v-247h-93v247z" />
    <glyph glyph-name="ordfeminine" unicode="&#xaa;" horiz-adv-x="306" 
d="M289 300h-58l-32 78h-92l-29 -78h-59l118 287h34zM154 494l-25 -65h48z" />
    <glyph glyph-name="logicalnot" unicode="&#xac;" horiz-adv-x="525" 
d="M54 394h419v-229h-94v135h-325v94z" />
    <glyph glyph-name="uni00AD" unicode="&#xad;" horiz-adv-x="492" 
d="M99 394h311v-94h-311v94z" />
    <glyph glyph-name="degree" unicode="&#xb0;" horiz-adv-x="372" 
d="M184 296c-86 0 -152 65 -152 149c0 85 68 149 152 149c85 0 154 -64 154 -149c0 -83 -68 -149 -154 -149zM184 540c-52 0 -95 -43 -95 -95c0 -53 43 -95 95 -95c54 0 97 44 97 95c0 50 -41 95 -97 95z" />
    <glyph glyph-name="twosuperior" unicode="&#xb2;" horiz-adv-x="241" 
d="M213 300h-185v30l3 3c18 18 31 33 43 47c22 24 67 75 67 122c0 22 -17 39 -40 39c-31 0 -59 -31 -59 -31l-14 -16v69l2 2c1 2 30 29 73 29c50 0 92 -40 92 -92c0 -36 -23 -79 -39 -102l-13 -19c-7 -10 -15 -18 -21 -28h91v-53z" />
    <glyph glyph-name="threesuperior" unicode="&#xb3;" horiz-adv-x="226" 
d="M109 296c-41 0 -71 16 -72 17l-4 2v59l13 -9c1 0 25 -16 61 -16c29 0 42 16 42 36c0 26 -19 39 -45 39h-28v54h27c22 0 43 13 43 31c0 17 -17 31 -40 31c-34 0 -56 -22 -56 -23l-15 -15v66l4 2c20 16 41 24 70 24c56 0 92 -38 92 -84c0 -21 -9 -41 -27 -58
c20 -16 30 -38 30 -63c0 -56 -40 -93 -95 -93z" />
    <glyph glyph-name="paragraph" unicode="&#xb6;" horiz-adv-x="474" 
d="M434 514h-54v-514h-79v514h-53v-514h-80v316c-35 3 -65 16 -87 42c-23 25 -35 58 -35 96s13 71 38 96c27 25 59 38 97 38h253v-74z" />
    <glyph glyph-name="onesuperior" unicode="&#xb9;" horiz-adv-x="347" 
d="M156 300h-54v200l-47 -47v77l59 57h42v-287z" />
    <glyph glyph-name="ordmasculine" unicode="&#xba;" horiz-adv-x="365" 
d="M184 297c-86 0 -152 65 -152 149c0 83 67 148 152 148s153 -64 153 -148c0 -83 -67 -149 -153 -149zM184 540c-53 0 -95 -43 -95 -94c0 -53 43 -95 95 -95c54 0 96 44 96 95c0 49 -40 94 -96 94z" />
    <glyph glyph-name="Thorn" unicode="&#xde;" horiz-adv-x="448" 
d="M383 367c9 -22 14 -46 14 -73s-5 -51 -15 -73c-9 -22 -24 -41 -44 -57c-37 -29 -86 -43 -146 -43h-45v-121h-93v588h93v-121h50c28 0 55 -3 79 -10s46 -18 64 -33c19 -15 33 -34 43 -57zM277 265c4 8 5 18 5 30c0 11 -1 20 -5 28c-3 8 -8 14 -15 20s-17 11 -28 14
c-11 4 -25 5 -40 5h-47v-136h43c32 0 56 6 71 19c7 5 12 12 16 20z" />
    <glyph glyph-name="germandbls" unicode="&#xdf;" horiz-adv-x="507" 
d="M224 483c-34 0 -52 -22 -52 -68l-1 -415h-111v416c0 120 67 172 148 172c28 0 55 -3 79 -10c25 -7 47 -17 66 -32c39 -32 58 -75 58 -128c0 -40 -12 -74 -37 -102c14 -7 26 -16 36 -27c30 -28 46 -66 46 -113c0 -55 -20 -99 -60 -131c-38 -30 -88 -45 -150 -45h-25v106
h18c19 0 35 1 48 5s24 8 33 14c14 11 21 27 21 48c0 13 -2 24 -6 32c-3 7 -9 13 -16 18c-10 7 -22 12 -36 16c-15 3 -41 6 -62 6v103c29 3 43 11 54 19c7 5 12 12 15 19c4 7 6 17 6 28c0 13 -2 24 -6 32c-3 8 -8 14 -15 19c0 0 -22 18 -51 18z" />
    <glyph glyph-name="plusminus" unicode="&#xb1;" horiz-adv-x="550" 
d="M325 404h173v-100h-173v-173h-101v173h-173v100h173v171h101v-171zM51 0v89h447v-89h-447z" />
    <glyph glyph-name="eth" unicode="&#xf0;" horiz-adv-x="451" 
d="M358 405c37 -62 55 -126 55 -189c0 -34 -4 -65 -12 -92c-9 -28 -24 -52 -43 -72c-37 -39 -84 -59 -141 -59c-51 0 -95 18 -129 51c-35 34 -52 78 -52 130c0 49 18 92 53 126c35 33 78 50 127 50c16 0 36 -3 52 -7c-5 10 -11 20 -18 29c-10 14 -21 28 -33 41l-36 -37
l-66 66l34 34c-15 12 -32 24 -50 36l-14 10l64 87l14 -10c22 -16 43 -32 62 -48l43 44l66 -66l-40 -40c26 -28 48 -56 64 -84zM295 157c4 14 6 32 6 55c0 1 0 6 -1 11c-12 6 -43 19 -81 19c-21 0 -38 -7 -52 -21s-21 -29 -21 -47c0 -21 7 -38 21 -52s31 -20 51 -20
c14 0 26 2 36 6c9 4 18 10 25 18c6 7 12 17 16 31z" />
    <glyph glyph-name="cedilla" unicode="&#xb8;" horiz-adv-x="286" 
d="M124 -45c79 0 121 -52 121 -115c0 -73 -52 -120 -117 -120c-32 0 -65 8 -97 29v78c17 -14 53 -43 95 -43c32 0 55 22 55 55c0 36 -28 54 -64 54c-26 0 -55 -10 -69 -15v130h64v-54c4 1 8 1 12 1z" />
    <glyph glyph-name="Aogonek" unicode="&#x104;" horiz-adv-x="580" 
d="M498 -59c0 -27 16 -37 35 -37c20 0 33 6 33 6v-73s-22 -8 -57 -8c-47 0 -121 23 -121 86c0 45 30 76 55 94l-62 150h-188l-59 -159h-121l242 587h69l242 -587h-31c-18 -12 -37 -31 -37 -59zM238 264h98l-47 132z" />
    <glyph glyph-name="aogonek" unicode="&#x105;" 
d="M498 -59c0 -27 16 -37 35 -37c20 0 33 6 33 6v-73s-22 -8 -57 -8c-47 0 -121 23 -121 86c0 45 30 76 55 94l-62 150h-188l-59 -159h-121l242 587h69l242 -587h-31c-18 -12 -37 -31 -37 -59zM238 264h98l-47 132z" />
    <glyph glyph-name="Eogonek" unicode="&#x118;" horiz-adv-x="463" 
d="M371 0c-19 -12 -37 -31 -37 -59c0 -27 16 -37 35 -37c20 0 33 6 33 6v-73s-22 -8 -57 -8c-47 0 -121 23 -121 86c0 39 21 67 44 85h-199v587h328v-105h-216v-134h209v-105h-209v-138h221v-105h-31z" />
    <glyph glyph-name="eogonek" unicode="&#x119;" horiz-adv-x="467" 
d="M371 0c-19 -12 -37 -31 -37 -59c0 -27 16 -37 35 -37c20 0 33 6 33 6v-73s-22 -8 -57 -8c-47 0 -121 23 -121 86c0 39 21 67 44 85h-199v587h328v-105h-216v-134h209v-105h-209v-138h221v-105h-31z" />
    <glyph glyph-name="ring" unicode="&#x2da;" horiz-adv-x="307" 
d="M246 681c27 -26 41 -57 41 -94s-14 -68 -41 -95c-26 -27 -57 -40 -94 -40c-39 0 -71 13 -95 40c-27 26 -40 58 -40 95s13 69 40 94c26 27 58 40 95 40s69 -13 94 -40zM191 547c11 12 17 24 17 38c0 16 -6 29 -16 41c-12 10 -25 17 -38 17c-17 0 -31 -7 -43 -16
c-9 -12 -16 -25 -16 -39c0 -15 7 -29 16 -40c13 -11 26 -17 42 -17c15 0 27 6 38 16z" />
    <glyph glyph-name="Uring" unicode="&#x16e;" horiz-adv-x="591" 
d="M291 -8c-125 0 -239 109 -239 263v332h112v-329c0 -110 67 -157 128 -157c68 0 125 62 125 161v325h112v-328c0 -167 -118 -267 -238 -267zM389 850c27 -26 41 -57 41 -94s-14 -68 -41 -95c-26 -27 -57 -40 -94 -40c-39 0 -71 13 -95 40c-27 26 -40 58 -40 95
s13 69 40 94c26 27 58 40 95 40s69 -13 94 -40zM334 716c11 12 17 24 17 38c0 16 -6 29 -16 41c-12 10 -25 17 -38 17c-17 0 -31 -7 -43 -16c-9 -12 -16 -25 -16 -39c0 -15 7 -29 16 -40c13 -11 26 -17 42 -17c15 0 27 6 38 16z" />
    <glyph glyph-name="uring" unicode="&#x16f;" horiz-adv-x="591" 
d="M291 -8c-125 0 -239 109 -239 263v332h112v-329c0 -110 67 -157 128 -157c68 0 125 62 125 161v325h112v-328c0 -167 -118 -267 -238 -267zM389 844c27 -26 41 -57 41 -94s-14 -68 -41 -95c-26 -27 -57 -40 -94 -40c-39 0 -71 13 -95 40c-27 26 -40 58 -40 95
s13 69 40 94c26 27 58 40 95 40s69 -13 94 -40zM334 710c11 12 17 24 17 38c0 16 -6 29 -16 41c-12 10 -25 17 -38 17c-17 0 -31 -7 -43 -16c-9 -12 -16 -25 -16 -39c0 -15 7 -29 16 -40c13 -11 26 -17 42 -17c15 0 27 6 38 16z" />
    <glyph glyph-name="uni02C9" unicode="&#x2c9;" horiz-adv-x="317" 
d="M29 589h258v-94h-258v94z" />
    <glyph glyph-name="Gbreve" unicode="&#x11e;" horiz-adv-x="554" 
d="M351 -9c-181 0 -317 126 -317 301c0 170 138 301 315 301c43 0 97 -10 146 -28v-122c-25 13 -81 41 -153 41c-110 0 -193 -83 -193 -192c0 -116 82 -192 196 -192c16 0 32 2 47 4v112h-109v105h221v-296c-52 -24 -103 -34 -153 -34zM368 804h104c0 -43 -15 -80 -46 -111
s-69 -47 -111 -47c-45 0 -83 15 -113 46s-45 68 -45 112h104c0 -16 5 -27 16 -37c11 -11 23 -17 38 -17s27 5 37 16c11 10 16 24 16 38z" />
    <glyph glyph-name="gbreve" unicode="&#x11f;" horiz-adv-x="554" 
d="M351 -9c-181 0 -317 126 -317 301c0 170 138 301 315 301c43 0 97 -10 146 -28v-122c-25 13 -81 41 -153 41c-110 0 -193 -83 -193 -192c0 -116 82 -192 196 -192c16 0 32 2 47 4v112h-109v105h221v-296c-52 -24 -103 -34 -153 -34zM365 805h104c0 -43 -15 -80 -46 -111
s-69 -47 -111 -47c-45 0 -83 15 -113 46s-45 68 -45 112h104c0 -16 5 -27 16 -37c11 -11 23 -17 38 -17s27 5 37 16c11 10 16 24 16 38z" />
    <glyph glyph-name="Idotaccent" unicode="&#x130;" horiz-adv-x="258" 
d="M179 0h-111v587h111v-587zM128 798c35 0 63 -28 63 -63c0 -34 -28 -62 -63 -62c-34 0 -62 28 -62 62c0 35 28 63 62 63z" />
    <glyph glyph-name="Lslash" unicode="&#x141;" horiz-adv-x="453" 
d="M180 105h227v-105h-339v210l-45 -17v94l45 17v283h112v-241l155 59v-94l-155 -59v-147z" />
    <glyph glyph-name="lslash" unicode="&#x142;" horiz-adv-x="444" 
d="M180 105h227v-105h-339v210l-45 -17v94l45 17v283h112v-241l155 59v-94l-155 -59v-147z" />
    <glyph glyph-name="ogonek" unicode="&#x2db;" horiz-adv-x="269" 
d="M189 -100c20 0 33 6 33 6l-1 -72s-21 -9 -56 -9c-47 0 -121 23 -121 86c0 49 35 81 62 98h109c-20 -9 -61 -31 -61 -72c0 -27 16 -37 35 -37z" />
    <glyph glyph-name="Dcroat" unicode="&#x110;" horiz-adv-x="613" 
d="M563 414c14 -35 21 -76 21 -121c0 -85 -27 -156 -82 -211c-28 -28 -61 -49 -99 -62c-38 -14 -80 -20 -127 -20h-184v249h-70v89h70v250h179c46 0 89 -7 126 -19c38 -13 72 -33 101 -60s51 -59 65 -95zM415 156c37 35 54 79 54 137s-17 103 -53 137c-36 35 -86 52 -149 52
h-63v-144h70v-89h-70v-144h62c62 0 113 17 149 51z" />
    </font>
</defs>
</svg>
